<?xml version="1.0" standalone="no"?>
<!DOCTYPE svg PUBLIC "-//W3C//DTD SVG 20010904//EN"
 "http://www.w3.org/TR/2001/REC-SVG-20010904/DTD/svg10.dtd">
<svg version="1.0" xmlns="http://www.w3.org/2000/svg"
 width="346.000000pt" height="400.000000pt" viewBox="0 0 346.000000 400.000000"
 preserveAspectRatio="xMidYMid meet">

<g transform="translate(0.000000,400.000000) scale(0.100000,-0.100000)"
fill="#000000" stroke="none">
<path d="M1135 3810 c-12 -13 -20 -46 -26 -102 -28 -277 -176 -439 -470 -512
-96 -25 -274 -46 -382 -46 -44 0 -62 -5 -78 -21 -20 -20 -20 -25 -17 -707 l4
-687 25 -70 c34 -92 102 -225 152 -300 128 -189 397 -474 642 -679 255 -213
702 -536 742 -536 20 0 291 185 463 316 403 306 743 640 917 899 51 75 118
209 152 300 l26 70 3 687 c3 681 3 687 -18 708 -15 15 -33 20 -77 20 -198 0
-425 44 -553 107 -179 88 -299 274 -300 466 0 48 -13 85 -34 99 -6 4 -268 8
-582 8 -555 0 -571 -1 -589 -20z m1075 -134 c0 -53 32 -175 64 -241 114 -240
359 -373 749 -407 l138 -12 -3 -631 c-4 -609 -4 -632 -24 -685 -50 -130 -123
-255 -232 -395 -82 -104 -399 -415 -547 -536 -239 -195 -603 -462 -630 -462
-17 0 -120 71 -330 229 -270 202 -426 335 -615 524 -271 270 -380 421 -459
635 l-25 70 -4 625 -3 626 138 12 c384 33 639 170 748 400 32 68 65 186 65
234 l0 38 485 0 485 0 0 -24z"/>
<path d="M2090 2720 c-38 -38 -27 -66 67 -161 l87 -89 -610 0 c-600 0 -611 0
-632 -20 -22 -21 -29 -64 -14 -87 19 -30 70 -33 660 -33 l597 0 -88 -88 c-66
-66 -87 -94 -87 -114 0 -50 51 -78 97 -54 15 8 90 77 166 154 120 123 137 144
137 173 0 30 -17 50 -153 186 -163 164 -184 176 -227 133z"/>
<path d="M1275 2042 c-16 -11 -90 -80 -162 -155 -117 -118 -133 -139 -133
-168 0 -30 17 -50 153 -186 163 -164 184 -176 227 -133 39 39 27 68 -67 162
l-88 88 602 0 c362 0 612 4 627 10 51 19 47 101 -5 119 -22 8 -220 11 -628 11
l-596 0 88 88 c63 64 87 94 87 113 0 56 -54 82 -105 51z"/>
</g>
</svg>
