<?xml version="1.0" encoding="iso-8859-1"?>
<!-- Generator: Adobe Illustrator 19.0.0, SVG Export Plug-In . SVG Version: 6.00 Build 0)  -->
<svg version="1.1" id="Layer_1" xmlns="http://www.w3.org/2000/svg" xmlns:xlink="http://www.w3.org/1999/xlink" x="0px" y="0px"
	 viewBox="0 0 512 512" style="enable-background:new 0 0 512 512;" xml:space="preserve">
<path style="fill:#FFFFFF;" d="M455.612,369.545c9.199,72.482-51.985,133.675-124.467,124.467
	c-49.399-6.272-89.293-46.165-95.565-95.565c-9.19-72.474,51.994-133.658,124.467-124.459
	C409.455,280.26,449.34,320.145,455.612,369.545z"/>
<path style="fill:#F0F0F0;" d="M363.153,274.441c-31.275-4.873-60.459,3.567-83.166,20.309c19.115-5.666,40.286-6.537,62.31-0.222
	c40.038,11.486,70.963,45.261,78.285,86.263c7.987,44.74-11.11,85.658-43.503,109.534c49.681-14.729,84.932-63.309,78.754-118.946
	C450.389,322.398,411.844,282.027,363.153,274.441z"/>
<path d="M345.6,256c-70.579,0-128,57.421-128,128s57.421,128,128,128s128-57.421,128-128S416.179,256,345.6,256z M345.6,494.933
	c-61.167,0-110.933-49.766-110.933-110.933S284.433,273.067,345.6,273.067S456.533,322.833,456.533,384
	S406.767,494.933,345.6,494.933z"/>
<polygon style="fill:#7E939E;" points="367.701,136.533 260.267,136.533 260.267,29.099 "/>
<path style="fill:#AFAFAF;" d="M337.067,153.6v69.717c-59.136,4.181-106.411,52.053-109.653,111.531
	c-6.315,15.104-9.813,31.744-9.813,49.152c0,1.707,0,3.413,0.085,5.12c1.365,34.987,16.981,66.475,41.045,88.747h-24.064
	c0-4.693-3.84-8.533-8.533-8.533H55.467V409.6c0-4.693-3.84-8.533-8.533-8.533V384h0.085c4.693,0,8.448-3.84,8.448-8.533
	s-3.84-8.533-8.533-8.533v-17.067c4.693,0,8.533-3.84,8.533-8.533V17.067H243.2v128c0,4.693,3.84,8.533,8.533,8.533H337.067z"/>
<path style="fill:#7E939E;" d="M379.733,230.4v-2.304v-18.944V153.6h-42.667v51.456v18.261
	c-59.136,4.181-106.411,52.053-109.653,111.531C246.784,288.597,292.437,256,345.6,256c15.019,0,29.355,2.56,42.667,7.339v-24.405
	C383.573,238.933,379.733,235.093,379.733,230.4z"/>
<path d="M226.133,469.333H55.467V409.6c0-4.71-3.823-8.533-8.533-8.533S38.4,404.89,38.4,409.6v68.267
	c0,4.71,3.823,8.533,8.533,8.533h179.2c4.71,0,8.533-3.823,8.533-8.533S230.844,469.333,226.133,469.333z"/>
<path d="M46.933,384h0.085c4.71,0,8.491-3.823,8.491-8.533c0-4.71-3.866-8.533-8.576-8.533s-8.533,3.823-8.533,8.533
	C38.4,380.177,42.223,384,46.933,384z"/>
<path d="M46.933,349.867c4.71,0,8.533-3.823,8.533-8.533V17.067H243.2v128c0,4.71,3.823,8.533,8.533,8.533h128v76.8
	c0,4.71,3.823,8.533,8.533,8.533s8.533-3.823,8.533-8.533v-85.333c0-2.261-0.896-4.437-2.5-6.033L257.766,2.5
	c-1.596-1.604-3.772-2.5-6.033-2.5h-204.8C42.223,0,38.4,3.823,38.4,8.533v332.8C38.4,346.044,42.223,349.867,46.933,349.867z
	 M260.267,29.133l107.401,107.401H260.267V29.133z"/>
<path d="M416.563,324.702c-4.497-1.493-9.31,0.93-10.795,5.393l-2.432,7.279C389.658,318.259,369.178,307.2,345.6,307.2
	c-35.055,0-65.638,23.689-74.385,57.6c-1.178,4.565,1.579,9.216,6.144,10.394c0.708,0.188,1.425,0.273,2.133,0.273
	c3.797,0,7.27-2.551,8.26-6.4c6.793-26.377,30.583-44.8,57.847-44.8c16.239,0,30.234,6.724,40.542,18.739l-3.712-1.237
	c-4.514-1.51-9.301,0.93-10.795,5.393c-1.493,4.471,0.922,9.301,5.393,10.795l25.6,8.533c0.905,0.307,1.818,0.444,2.705,0.444
	c3.575,0,6.903-2.261,8.09-5.837l8.533-25.6C423.45,331.025,421.035,326.195,416.563,324.702z"/>
<path d="M414.404,384.06c-4.685-0.614-8.943,2.731-9.523,7.415c-3.721,29.79-29.21,52.258-59.281,52.258
	c-21.282,0-41.387-11.494-52.548-28.433l7.177,2.389c4.506,1.502,9.301-0.93,10.795-5.393c1.493-4.471-0.922-9.301-5.393-10.795
	l-25.6-8.533c-4.506-1.51-9.301,0.93-10.795,5.393l-8.533,25.6c-1.493,4.471,0.922,9.301,5.393,10.795
	c0.905,0.307,1.818,0.444,2.705,0.444c3.575,0,6.903-2.261,8.09-5.837l1.621-4.873c14.165,21.888,39.543,36.309,67.089,36.309
	c38.665,0,71.433-28.894,76.211-67.217C422.391,388.907,419.072,384.649,414.404,384.06z"/>
<g>
</g>
<g>
</g>
<g>
</g>
<g>
</g>
<g>
</g>
<g>
</g>
<g>
</g>
<g>
</g>
<g>
</g>
<g>
</g>
<g>
</g>
<g>
</g>
<g>
</g>
<g>
</g>
<g>
</g>
</svg>
